<?xml version='1.0' encoding='utf-8'?>
<svg xmlns="http://www.w3.org/2000/svg" width="800" height="800" viewBox="0 0 211.66666 211.66667" version="1.1" id="svg531"> <defs id="defs525"/> <metadata id="metadata528"> </metadata> <g id="layer1" transform="translate(0,-85.333317)"> <g id="g585" transform="translate(-1.4608866,2.2521301)"> <circle r="100.97746" cy="188.91452" cx="107.29422" id="path1419" style="display:inline;fill:#a679c2;fill-opacity:1;stroke:none;stroke-width:0.04987862;stroke-miterlimit:4;stroke-dasharray:none;stroke-opacity:1"/> <path id="path1437" d="m 62.744914,148.69323 -43.886079,88.95829 c 0,0 8.035325,21.30138 43.043525,41.51337 29.94752,17.2902 68.72035,8.08101 68.72035,8.08101 l 18.28511,-114.28805 -13.56086,-3.93699 -1.01521,-1.21117 2.74975,-10.48147 -10.97109,-1.73147 -0.64492,2.05819 -5.57905,-6.72075 -9.10152,-10.68756 -6.53065,-7.35895 z" style="display:inline;fill:#7e5398;fill-opacity:1;stroke:none;stroke-width:0.07998211px;stroke-linecap:butt;stroke-linejoin:miter;stroke-opacity:1"/> <path id="path947-1" d="M 67.845082,157.27334 120.51559,219.97355 155.31662,194.34736 103.403,134.49857 Z" style="display:inline;fill:#090910;fill-opacity:1;stroke:none;stroke-width:0.10544981px;stroke-linecap:butt;stroke-linejoin:miter;stroke-opacity:1"/> <path id="path4971-3" d="m 74.544714,169.7161 c 0,0 -1.60896,0.21756 -2.473708,1.03413 -0.556129,0.52531 -0.567043,1.55114 -0.431856,2.08811 0.592828,2.35481 5.72014,8.05778 5.72014,8.05778 l 1.618125,4.87504 c 0,0 0.217621,2.04051 0.534215,3.00865 0.228927,0.70006 0.385849,1.64595 0.766316,2.34412 0.226721,0.41611 0.787749,0.82141 0.787749,0.82141 0,0 0.717347,3.94073 1.755154,7.61911 0.526778,1.86709 1.394001,3.19469 1.764252,4.87085 0.431858,1.95509 1.075957,8.3103 1.075957,8.3103 0,0 0.651564,4.68334 2.498647,8.19754 2.466271,4.69223 10.441345,16.42172 10.441345,16.42172 0,0 2.57622,5.0819 3.65822,7.49763 2.28644,5.10491 6.44722,15.06433 6.44722,15.06433 0,0 2.40101,5.45449 4.09903,7.88002 5.04095,7.20053 17.81719,19.43906 17.81719,19.43906 18.35139,-0.12033 39.03891,-5.39267 45.54171,-19.87561 0,0 -8.51143,-6.88214 -13.275,-9.5202 -0.90132,-0.49918 -2.29683,-0.73395 -2.85964,-1.17335 -4.48973,-3.50511 -11.46201,-10.85125 -11.46201,-10.85125 l -1.95155,-3.41459 c 0,0 -0.0711,-8.56317 -0.8,-12.77396 -0.61292,-3.54075 -0.92515,-12.41652 -0.92515,-12.41652 l 14.72989,-11.70824 c 0,0 2.25915,-2.17101 1.98245,-3.85294 -0.33239,-2.01998 -0.35164,-2.45211 -1.92069,-4.68728 -2.64171,-3.76336 -11.19446,-12.74818 -11.19446,-12.74818 0,0 0.45174,-1.98663 0.53412,-2.99852 0.22359,-2.74702 -0.11462,-8.26741 -0.11462,-8.26741 0,0 -1.28732,-3.61193 -2.66806,-4.82471 -1.09634,-0.96293 -4.07213,-1.60645 -4.07213,-1.60645 0,0 -2.33474,-0.52218 -4.11606,-0.53129 -0.7331,-0.003 -1.21219,0.34254 -1.64875,0.43327 -0.55972,0.11632 -0.40633,1.38033 -0.40633,1.38033 0,0 -0.20417,0.0633 -0.31134,0.26349 -0.10909,0.20376 -0.33732,0.94828 -0.33732,0.94828 l -1.01608,-1.21108 c 0,0 0.67286,0.72806 0.99244,-0.49002 0.59702,-2.27578 1.75736,-9.99145 1.75736,-9.99145 0,0 -0.27128,-2.55272 -0.59892,-3.40549 -0.30241,-0.78718 -1.29125,-1.51438 -1.29125,-1.51438 0,0 0.13531,-1.13747 -0.37787,-1.80534 -0.6469,-0.84184 -2.04234,-1.26475 -2.88148,-1.38696 -0.92151,-0.13417 -2.43053,0.0174 -3.26782,0.665 -0.47651,0.3684 -0.60857,1.38154 -0.60857,1.38154 0,0 -0.8624,0.37452 -1.11674,0.74199 -0.69945,1.01037 -0.82845,3.59217 -0.82845,3.59217 l -0.64494,2.05819 -5.57907,-6.72075 2.42267,-13.76388 c 0.32893,-2.73882 0.22913,-6.50286 -4.59689,-7.14874 -2.17171,-0.29067 -4.12148,2.00034 -5.14719,3.86192 -0.96266,1.74714 -1.7801,6.36314 -1.7801,6.36314 l -9.00974,-10.2726 c 0,0 -3.497063,-4.30009 -8.745171,-1.17703 0,0 -7.292167,5.12871 -16.011221,10.6259 -5.051857,3.1851 -13.052843,7.93848 -14.446936,9.76018 -0.666498,0.87088 -1.534539,1.54465 -1.493999,2.64054 0.04382,1.18277 1.059968,2.66827 1.833025,3.91437 0.665469,1.07269 1.348235,1.91834 1.348235,1.91834 z" style="display:inline;fill:#e7c0a5;fill-opacity:1;stroke:none;stroke-width:0.10544981px;stroke-linecap:butt;stroke-linejoin:miter;stroke-opacity:1"/> <path id="path1363-9" d="m 144.89031,217.22051 c 0,0 -13.05885,12.79544 -18.49767,12.13562 -7.28442,-0.88378 -12.34451,-15.62278 -19.45131,-22.70753 -2.87564,-2.86669 -9.634071,-7.8911 -9.634071,-7.8911 L 92.34425,186.34985 Z" style="display:inline;fill:#c29779;fill-opacity:1;stroke:none;stroke-width:0.10544981px;stroke-linecap:butt;stroke-linejoin:miter;stroke-opacity:1"/> <path id="path136-4" d="m 97.619045,127.74634 c -3.3126,-0.25369 -5.148614,1.52922 -6.933183,2.74913 -2.520689,1.72314 -8.548834,5.51602 -15.070872,9.76877 -3.556982,2.31934 -8.392546,4.9904 -11.490735,7.34274 -1.781393,1.35262 -2.722648,2.20581 -3.022068,3.79495 -0.177538,0.94222 0.398817,1.90201 0.850143,2.74794 3.141565,5.88834 12.592384,15.56623 12.592384,15.56623 0,0 4.184909,-1.06108 7.245007,2.10364 1.875196,1.93938 5.332598,4.30342 7.533246,8.083 1.639103,2.81513 2.803233,6.11778 3.925113,9.04866 2.032841,5.31052 4.059179,9.8061 4.059179,9.8061 0,0 5.659891,2.9984 8.198841,5.3752 1.74767,1.6361 3.51599,4.49653 5.51415,7.00915 5.82233,7.32133 7.20929,11.13133 12.07378,15.52699 0.96589,0.87283 2.01748,1.91393 3.30949,2.07379 1.58188,0.19573 3.12446,-0.65012 4.54872,-1.47493 2.81671,-1.63106 6.06942,-4.34115 9.53575,-6.90399 9.27394,-6.85652 19.13212,-14.85144 19.13212,-14.85144 0,0 2.02044,-2.12002 2.0027,-3.44951 -0.0113,-0.79442 -0.15837,-1.79007 -0.54147,-2.69021 -1.67369,-3.93222 -6.17575,-8.19986 -6.17575,-8.19986 l -15.23526,-16.96514 c 0,0 -1.61556,-0.13969 -3.83927,-3.20708 -0.39873,-0.54999 -0.4841,-1.97958 -0.4841,-1.97958 l -1.01603,-1.21107 -8.86627,-10.15474 -5.57908,-6.72079 -9.10147,-10.68756 c 0,0 -2.52053,-2.66442 -4.69177,-5.23841 -2.89595,-3.43314 -4.85688,-6.98498 -8.473295,-7.26198 z" style="display:inline;fill:#08080f;fill-opacity:1;stroke:none;stroke-width:0.10544981px;stroke-linecap:butt;stroke-linejoin:miter;stroke-opacity:1"/> <path id="path1361-8" d="m 124.15619,280.71149 c 0,0 18.40323,-21.16782 27.1837,-23.07425 8.78045,-1.90639 8.98224,-0.65928 8.98224,-0.65928 l -24.77958,14.66671 z" style="display:inline;fill:#c29779;fill-opacity:1;stroke:none;stroke-width:0.10544981px;stroke-linecap:butt;stroke-linejoin:miter;stroke-opacity:1"/> <path id="path943-4" d="m 160.32213,256.97796 c 0,0 -2.18646,-0.33503 -8.36306,1.70033 -2.15419,0.70985 -6.41411,3.07959 -10.3558,6.17223 -3.81827,2.99577 -7.64269,7.15077 -10.8334,10.14277 -3.78375,3.54811 -6.69263,5.76204 -6.69178,5.7807 l 6.54384,6.47202 c 0,0 9.66499,0 18.14073,-1.81077 10.87121,-2.62942 22.34972,-7.26441 27.40098,-18.06484 0,0 -4.37434,-3.60183 -6.67883,-5.24601 -4.23256,-3.01969 -7.16203,-4.62673 -7.16203,-4.62673 z" style="display:inline;fill:#373753;fill-opacity:1;stroke:none;stroke-width:0.10544981px;stroke-linecap:butt;stroke-linejoin:miter;stroke-opacity:1"/> <path id="path945-9" d="m 62.744914,148.69323 c -0.733334,0.7292 -1.108967,1.99059 -0.783788,3.17097 0.765954,2.78001 3.650389,5.50521 6.178087,8.52537 3.880828,4.63693 7.688232,9.14093 7.688232,9.14093 l 2.792959,0.41711 -10.775322,-12.67427 35.557918,-22.77477 51.91362,59.84879 -34.80103,25.62619 -28.17134,-33.6237 1.896842,5.12015 9.634068,11.35114 c 0,0 1.47466,1.14579 2.11802,1.81789 1.40668,1.4695 2.95209,3.88417 4.6243,6.0193 3.21977,4.11111 6.40105,8.02257 6.40105,8.02257 0,0 4.33628,5.29577 5.96594,6.8805 0.90402,0.87907 1.63893,1.57558 3.36569,1.75408 2.35143,0.24314 4.42835,-1.28628 4.42835,-1.28628 0,0 28.32275,-20.38939 28.80423,-21.31637 0,0 1.93469,-2.3735 1.94754,-3.75596 0.0144,-1.53513 -1.24243,-3.46647 -2.75724,-5.54946 -2.67232,-3.67481 -6.81365,-7.58896 -10.20138,-11.35394 -2.97522,-3.30656 -8.90133,-9.84592 -8.90133,-9.84592 0,0 -2.04954,-0.5919 -3.69094,-3.01062 -0.55508,-0.81791 -0.63243,-2.17604 -0.63243,-2.17604 l -9.8823,-11.36581 -5.57908,-6.72079 -9.10147,-10.68756 c 0,0 -2.27287,-2.83809 -5.46519,-6.28289 -1.07953,-1.16489 -2.2709,-3.02766 -3.49184,-4.22792 -3.6633,-3.40779 -7.878948,-2.09328 -10.539801,-0.52233 -9.050282,5.34314 -27.033824,17.9796 -28.542365,19.47964 z" style="display:inline;fill:#d2eff3;fill-opacity:1;stroke:none;stroke-width:0.10544981px;stroke-linecap:butt;stroke-linejoin:miter;stroke-opacity:1"/> <path id="path949-8" d="m 79.784421,142.85058 c -0.101475,-0.24651 1.196662,-1.04181 2.418174,-1.8251 1.197329,-0.7678 2.313553,-1.52949 2.704721,-1.228 0.417711,0.32193 -0.162603,0.69004 -0.797664,1.06637 -0.457613,0.27116 -0.969278,0.63243 -1.289709,0.85528 -0.843131,0.58638 -2.62809,2.12104 -3.035522,1.13145 z" style="display:inline;fill:#08080f;fill-opacity:1;stroke:none;stroke-width:0.10544981px;stroke-linecap:butt;stroke-linejoin:miter;stroke-opacity:1"/> <path id="path951-6" d="m 75.996183,145.43662 c -0.283429,-0.35845 0.320221,-0.77286 0.637391,-1.01642 0.378472,-0.29072 0.98548,-0.69201 1.368033,-0.42207 0.165203,0.11656 0.293678,0.36804 0.205168,0.56837 -0.113271,0.25643 -0.542952,0.51133 -0.765714,0.66818 -0.385367,0.2714 -1.151438,0.57307 -1.444878,0.20194 z" style="display:inline;fill:#08080f;fill-opacity:1;stroke:none;stroke-width:0.10544981px;stroke-linecap:butt;stroke-linejoin:miter;stroke-opacity:1"/> <path id="path957-9" d="m 72.918309,147.57944 c -0.298182,-0.30756 -0.37968,-0.83507 -0.04948,-1.10797 0.305165,-0.25222 0.915466,-0.22068 1.177889,0.0757 0.244313,0.27604 0.358098,0.83576 0.102295,1.10114 -0.285183,0.2958 -0.9447,0.22612 -1.230704,-0.069 z" style="display:inline;fill:#08080f;fill-opacity:1;stroke:none;stroke-width:0.10544981px;stroke-linecap:butt;stroke-linejoin:miter;stroke-opacity:1"/> <path id="path959-0" d="m 77.35929,180.89612 c 0.792982,1.56218 2.545383,-1.40071 2.883469,-2.5658 0.501295,-1.72745 -0.789806,-3.35386 -1.755516,-4.87635 -0.908696,-1.43268 -3.942529,-3.73787 -3.942529,-3.73787 -0.08051,0.10442 -3.760725,0.266 -2.870409,3.30589 0,0 0.775869,1.74194 1.67018,2.96508 1.022695,1.39875 4.014805,4.90905 4.014805,4.90905 z" style="display:inline;fill:#fd0106;fill-opacity:1;stroke:none;stroke-width:0.10544981px;stroke-linecap:butt;stroke-linejoin:miter;stroke-opacity:1"/> <path id="path961-6" d="m 135.99567,167.80913 c 0,0 0.67321,-0.57265 1.65718,-0.52295 0.59965,0.0303 2.28681,0.78386 3.28168,1.02356 1.47196,0.35468 2.23068,0.2309 2.23068,0.2309 0,0 0.12259,-0.95768 -0.41628,-1.35036 -1.17728,-0.85788 -3.1274,-1.23934 -5.06036,-1.18413 -0.22309,0.006 -0.57161,0.17761 -0.90994,0.28746 -0.19907,0.0648 -0.45753,0.1162 -0.55027,0.21551 -0.31598,0.33858 -0.23269,1.30001 -0.23269,1.30001 z" style="display:inline;fill:#fd0106;fill-opacity:1;stroke:none;stroke-width:0.10544981px;stroke-linecap:butt;stroke-linejoin:miter;stroke-opacity:1"/> <path id="path963-9" d="m 128.0548,151.26269 c 0,0 2.255,-0.97282 3.46473,-0.80934 1.36726,0.18473 3.671,1.9551 3.671,1.9551 0,0 0.22197,-1.13388 -0.50946,-1.96661 -0.64974,-0.73974 -2.21043,-1.18328 -2.94762,-1.26936 -0.40063,-0.0469 -1.17865,-0.0167 -1.88783,0.17287 -0.42012,0.11228 -0.81585,0.32981 -1.09518,0.48629 -0.52272,0.2928 -0.69564,1.43105 -0.69564,1.43105 z" style="display:inline;fill:#fd0106;fill-opacity:1;stroke:none;stroke-width:0.10544981px;stroke-linecap:butt;stroke-linejoin:miter;stroke-opacity:1"/> <path id="path965-5" d="m 94.241092,191.47 3.066167,7.2875 6.567901,4.06364 z" style="display:inline;fill:#5a514a;fill-opacity:1;stroke:none;stroke-width:0.10544981px;stroke-linecap:butt;stroke-linejoin:miter;stroke-opacity:1"/> </g> </g> </svg>