<?xml version="1.0" encoding="UTF-8"?>
<svg version="1.1" viewBox="0 0 1920 2715.4" xmlns="http://www.w3.org/2000/svg">
 <g transform="translate(587.95 831.53)">
  <g transform="matrix(2.5803 0 0 2.5803 -587.95 -831.53)">
   <rect x="2.4886" y="2.4885" width="739.12" height="1047.4" fill="#fff"/>
   <path d="m0 0v1052.4h744.09v-1052.4h-744.09zm4.9766 4.9766h734.14v1042.4h-734.14v-1042.4z" color="#000000" color-rendering="auto" image-rendering="auto" shape-rendering="auto" solid-color="#000000" style="block-progression:tb;isolation:auto;mix-blend-mode:normal;text-decoration-color:#000000;text-decoration-line:none;text-decoration-style:solid;text-indent:0;text-transform:none;white-space:normal"/>
   <g transform="translate(117.73 71.572)" fill="#666">
    <path d="m92.934 117.61h41.562v41.562h-41.562v-41.562z"/>
    <path d="m148.93 117.61h41.562v41.562h-41.562v-41.562z"/>
    <path d="m204.93 117.61h41.562v41.562h-41.562v-41.562z"/>
    <path d="m260.93 117.61h41.562v41.562h-41.562v-41.562z"/>
    <path d="m316.93 117.61h41.562v41.562h-41.562v-41.562z"/>
   </g>
   <g transform="translate(-48.576 -63.11)" fill="#666">
    <path d="m88.809 106.45h17.812v17.812h-17.812v-17.812z"/>
    <path d="m112.81 106.45h17.812v17.812h-17.812v-17.812z"/>
    <path d="m136.81 106.45h17.812v17.812h-17.812v-17.812z"/>
    <path d="m160.81 106.45h17.812v17.812h-17.812v-17.812z"/>
    <path d="m184.81 106.45h17.812v17.812h-17.812v-17.812z"/>
    <path d="m208.81 106.45h17.812v17.812h-17.812v-17.812z"/>
    <path d="m88.809 136.45h17.812v17.812h-17.812v-17.812z"/>
    <path d="m112.81 136.45h17.812v17.812h-17.812v-17.812z"/>
    <path d="m136.81 136.45h17.812v17.812h-17.812v-17.812z"/>
    <path d="m160.81 136.45h17.812v17.812h-17.812v-17.812z"/>
    <path d="m184.81 136.45h17.812v17.812h-17.812v-17.812z"/>
    <path d="m208.81 136.45h17.812v17.812h-17.812v-17.812z"/>
   </g>
   <g transform="translate(-4.8616 192.76)" fill="#666">
    <path d="m88.809 106.45h17.812v17.812h-17.812v-17.812z"/>
    <path d="m112.81 106.45h17.812v17.812h-17.812v-17.812z"/>
    <path d="m136.81 106.45h17.812v17.812h-17.812v-17.812z"/>
    <path d="m160.81 106.45h17.812v17.812h-17.812v-17.812z"/>
    <path d="m184.81 106.45h17.812v17.812h-17.812v-17.812z"/>
    <path d="m208.81 106.45h17.812v17.812h-17.812v-17.812z"/>
    <path d="m232.81 106.45h17.812v17.812h-17.812v-17.812z"/>
    <path d="m256.81 106.45h17.812v17.812h-17.812v-17.812z"/>
    <path d="m280.81 106.45h17.812v17.812h-17.812v-17.812z"/>
    <path d="m304.81 106.45h17.812v17.812h-17.812v-17.812z"/>
    <path d="m328.81 106.45h17.812v17.812h-17.812v-17.812z"/>
    <path d="m352.81 106.45h17.812v17.812h-17.812v-17.812z"/>
    <path d="m376.81 106.45h17.812v17.812h-17.812v-17.812z"/>
    <path d="m400.81 106.45h17.812v17.812h-17.812v-17.812z"/>
    <path d="m424.81 106.45h17.812v17.812h-17.812v-17.812z"/>
    <path d="m448.81 106.45h17.812v17.812h-17.812v-17.812z"/>
    <path d="m472.81 106.45h17.812v17.812h-17.812v-17.812z"/>
    <path d="m496.81 106.45h17.812v17.812h-17.812v-17.812z"/>
    <path d="m520.81 106.45h17.812v17.812h-17.812v-17.812z"/>
    <path d="m544.81 106.45h17.812v17.812h-17.812v-17.812z"/>
    <path d="m568.81 106.45h17.812v17.812h-17.812v-17.812z"/>
    <path d="m592.81 106.45h17.812v17.812h-17.812v-17.812z"/>
    <path d="m616.81 106.45h17.812v17.812h-17.812v-17.812z"/>
    <path d="m88.809 136.45h17.812v17.812h-17.812v-17.812z"/>
    <path d="m112.81 136.45h17.812v17.812h-17.812v-17.812z"/>
    <path d="m136.81 136.45h17.812v17.812h-17.812v-17.812z"/>
    <path d="m160.81 136.45h17.812v17.812h-17.812v-17.812z"/>
    <path d="m184.81 136.45h17.812v17.812h-17.812v-17.812z"/>
    <path d="m208.81 136.45h17.812v17.812h-17.812v-17.812z"/>
    <path d="m232.81 136.45h17.812v17.812h-17.812v-17.812z"/>
    <path d="m256.81 136.45h17.812v17.812h-17.812v-17.812z"/>
    <path d="m280.81 136.45h17.812v17.812h-17.812v-17.812z"/>
    <path d="m304.81 136.45h17.812v17.812h-17.812v-17.812z"/>
    <path d="m328.81 136.45h17.812v17.812h-17.812v-17.812z"/>
    <path d="m352.81 136.45h17.812v17.812h-17.812v-17.812z"/>
    <path d="m376.81 136.45h17.812v17.812h-17.812v-17.812z"/>
    <path d="m400.81 136.45h17.812v17.812h-17.812v-17.812z"/>
    <path d="m424.81 136.45h17.812v17.812h-17.812v-17.812z"/>
    <path d="m448.81 136.45h17.812v17.812h-17.812v-17.812z"/>
    <path d="m472.81 136.45h17.812v17.812h-17.812v-17.812z"/>
    <path d="m496.81 136.45h17.812v17.812h-17.812v-17.812z"/>
    <path d="m520.81 136.45h17.812v17.812h-17.812v-17.812z"/>
    <path d="m88.809 406.45h17.812v17.812h-17.812v-17.812z"/>
    <path d="m112.81 406.45h17.812v17.812h-17.812v-17.812z"/>
    <path d="m136.81 406.45h17.812v17.812h-17.812v-17.812z"/>
    <path d="m160.81 406.45h17.812v17.812h-17.812v-17.812z"/>
    <path d="m184.81 406.45h17.812v17.812h-17.812v-17.812z"/>
    <path d="m208.81 406.45h17.812v17.812h-17.812v-17.812z"/>
    <path d="m232.81 406.45h17.812v17.812h-17.812v-17.812z"/>
    <path d="m256.81 406.45h17.812v17.812h-17.812v-17.812z"/>
    <path d="m280.81 406.45h17.812v17.812h-17.812v-17.812z"/>
    <path d="m304.81 406.45h17.812v17.812h-17.812v-17.812z"/>
    <path d="m328.81 406.45h17.812v17.812h-17.812v-17.812z"/>
    <path d="m352.81 406.45h17.812v17.812h-17.812v-17.812z"/>
    <path d="m376.81 406.45h17.812v17.812h-17.812v-17.812z"/>
    <path d="m400.81 406.45h17.812v17.812h-17.812v-17.812z"/>
    <path d="m424.81 406.45h17.812v17.812h-17.812v-17.812z"/>
    <path d="m448.81 406.45h17.812v17.812h-17.812v-17.812z"/>
    <path d="m472.81 406.45h17.812v17.812h-17.812v-17.812z"/>
    <path d="m496.81 406.45h17.812v17.812h-17.812v-17.812z"/>
    <path d="m520.81 406.45h17.812v17.812h-17.812v-17.812z"/>
    <path d="m544.81 406.45h17.812v17.812h-17.812v-17.812z"/>
    <path d="m568.81 406.45h17.812v17.812h-17.812v-17.812z"/>
    <path d="m592.81 406.45h17.812v17.812h-17.812v-17.812z"/>
    <path d="m616.81 406.45h17.812v17.812h-17.812v-17.812z"/>
    <path d="m88.809 436.45h17.812v17.812h-17.812v-17.812z"/>
    <path d="m112.81 436.45h17.812v17.812h-17.812v-17.812z"/>
    <path d="m136.81 436.45h17.812v17.812h-17.812v-17.812z"/>
    <path d="m160.81 436.45h17.812v17.812h-17.812v-17.812z"/>
    <path d="m184.81 436.45h17.812v17.812h-17.812v-17.812z"/>
    <path d="m208.81 436.45h17.812v17.812h-17.812v-17.812z"/>
    <path d="m232.81 436.45h17.812v17.812h-17.812v-17.812z"/>
    <path d="m256.81 436.45h17.812v17.812h-17.812v-17.812z"/>
    <path d="m280.81 436.45h17.812v17.812h-17.812v-17.812z"/>
    <path d="m304.81 436.45h17.812v17.812h-17.812v-17.812z"/>
    <path d="m328.81 436.45h17.812v17.812h-17.812v-17.812z"/>
    <path d="m352.81 436.45h17.812v17.812h-17.812v-17.812z"/>
    <path d="m376.81 436.45h17.812v17.812h-17.812v-17.812z"/>
    <path d="m400.81 436.45h17.812v17.812h-17.812v-17.812z"/>
    <path d="m424.81 436.45h17.812v17.812h-17.812v-17.812z"/>
    <path d="m448.81 436.45h17.812v17.812h-17.812v-17.812z"/>
    <path d="m472.81 436.45h17.812v17.812h-17.812v-17.812z"/>
    <path d="m496.81 436.45h17.812v17.812h-17.812v-17.812z"/>
    <path d="m520.81 436.45h17.812v17.812h-17.812v-17.812z"/>
    <path d="m88.809 496.45h17.812v17.812h-17.812v-17.812z"/>
    <path d="m112.81 496.45h17.812v17.812h-17.812v-17.812z"/>
    <path d="m136.81 496.45h17.812v17.812h-17.812v-17.812z"/>
    <path d="m160.81 496.45h17.812v17.812h-17.812v-17.812z"/>
    <path d="m184.81 496.45h17.812v17.812h-17.812v-17.812z"/>
    <path d="m208.81 496.45h17.812v17.812h-17.812v-17.812z"/>
    <path d="m232.81 496.45h17.812v17.812h-17.812v-17.812z"/>
    <path d="m256.81 496.45h17.812v17.812h-17.812v-17.812z"/>
    <path d="m280.81 496.45h17.812v17.812h-17.812v-17.812z"/>
    <path d="m304.81 496.45h17.812v17.812h-17.812v-17.812z"/>
    <path d="m328.81 496.45h17.812v17.812h-17.812v-17.812z"/>
    <path d="m352.81 496.45h17.812v17.812h-17.812v-17.812z"/>
    <path d="m376.81 496.45h17.812v17.812h-17.812v-17.812z"/>
    <path d="m400.81 496.45h17.812v17.812h-17.812v-17.812z"/>
    <path d="m424.81 496.45h17.812v17.812h-17.812v-17.812z"/>
    <path d="m448.81 496.45h17.812v17.812h-17.812v-17.812z"/>
    <path d="m472.81 496.45h17.812v17.812h-17.812v-17.812z"/>
    <path d="m496.81 496.45h17.812v17.812h-17.812v-17.812z"/>
    <path d="m520.81 496.45h17.812v17.812h-17.812v-17.812z"/>
    <path d="m544.81 496.45h17.812v17.812h-17.812v-17.812z"/>
    <path d="m568.81 496.45h17.812v17.812h-17.812v-17.812z"/>
    <path d="m592.81 496.45h17.812v17.812h-17.812v-17.812z"/>
    <path d="m616.81 496.45h17.812v17.812h-17.812v-17.812z"/>
    <path d="m88.809 526.45h17.812v17.812h-17.812v-17.812z"/>
    <path d="m112.81 526.45h17.812v17.812h-17.812v-17.812z"/>
    <path d="m136.81 526.45h17.812v17.812h-17.812v-17.812z"/>
    <path d="m160.81 526.45h17.812v17.812h-17.812v-17.812z"/>
    <path d="m184.81 526.45h17.812v17.812h-17.812v-17.812z"/>
    <path d="m208.81 526.45h17.812v17.812h-17.812v-17.812z"/>
    <path d="m232.81 526.45h17.812v17.812h-17.812v-17.812z"/>
    <path d="m256.81 526.45h17.812v17.812h-17.812v-17.812z"/>
    <path d="m280.81 526.45h17.812v17.812h-17.812v-17.812z"/>
    <path d="m304.81 526.45h17.812v17.812h-17.812v-17.812z"/>
    <path d="m328.81 526.45h17.812v17.812h-17.812v-17.812z"/>
    <path d="m352.81 526.45h17.812v17.812h-17.812v-17.812z"/>
    <path d="m376.81 526.45h17.812v17.812h-17.812v-17.812z"/>
    <path d="m400.81 526.45h17.812v17.812h-17.812v-17.812z"/>
    <path d="m424.81 526.45h17.812v17.812h-17.812v-17.812z"/>
    <path d="m448.81 526.45h17.812v17.812h-17.812v-17.812z"/>
    <path d="m472.81 526.45h17.812v17.812h-17.812v-17.812z"/>
    <path d="m496.81 526.45h17.812v17.812h-17.812v-17.812z"/>
    <path d="m520.81 526.45h17.812v17.812h-17.812v-17.812z"/>
    <path d="m544.81 526.45h17.812v17.812h-17.812v-17.812z"/>
    <path d="m568.81 526.45h17.812v17.812h-17.812v-17.812z"/>
    <path d="m592.81 526.45h17.812v17.812h-17.812v-17.812z"/>
    <path d="m616.81 526.45h17.812v17.812h-17.812v-17.812z"/>
    <path d="m88.809 556.45h17.812v17.812h-17.812v-17.812z"/>
    <path d="m112.81 556.45h17.812v17.812h-17.812v-17.812z"/>
    <path d="m136.81 556.45h17.812v17.812h-17.812v-17.812z"/>
    <path d="m160.81 556.45h17.812v17.812h-17.812v-17.812z"/>
    <path d="m184.81 556.45h17.812v17.812h-17.812v-17.812z"/>
    <path d="m208.81 556.45h17.812v17.812h-17.812v-17.812z"/>
    <path d="m232.81 556.45h17.812v17.812h-17.812v-17.812z"/>
    <path d="m256.81 556.45h17.812v17.812h-17.812v-17.812z"/>
    <path d="m280.81 556.45h17.812v17.812h-17.812v-17.812z"/>
    <path d="m304.81 556.45h17.812v17.812h-17.812v-17.812z"/>
    <path d="m328.81 556.45h17.812v17.812h-17.812v-17.812z"/>
    <path d="m352.81 556.45h17.812v17.812h-17.812v-17.812z"/>
    <path d="m376.81 556.45h17.812v17.812h-17.812v-17.812z"/>
    <path d="m400.81 556.45h17.812v17.812h-17.812v-17.812z"/>
    <path d="m424.81 556.45h17.812v17.812h-17.812v-17.812z"/>
    <path d="m448.81 556.45h17.812v17.812h-17.812v-17.812z"/>
    <path d="m472.81 556.45h17.812v17.812h-17.812v-17.812z"/>
    <path d="m496.81 556.45h17.812v17.812h-17.812v-17.812z"/>
    <path d="m520.81 556.45h17.812v17.812h-17.812v-17.812z"/>
    <path d="m544.81 556.45h17.812v17.812h-17.812v-17.812z"/>
    <path d="m568.81 556.45h17.812v17.812h-17.812v-17.812z"/>
    <path d="m592.81 556.45h17.812v17.812h-17.812v-17.812z"/>
    <path d="m616.81 556.45h17.812v17.812h-17.812v-17.812z"/>
    <path d="m88.809 586.45h17.812v17.812h-17.812v-17.812z"/>
    <path d="m112.81 586.45h17.812v17.812h-17.812v-17.812z"/>
    <path d="m136.81 586.45h17.812v17.812h-17.812v-17.812z"/>
    <path d="m160.81 586.45h17.812v17.812h-17.812v-17.812z"/>
    <path d="m184.81 586.45h17.812v17.812h-17.812v-17.812z"/>
    <path d="m208.81 586.45h17.812v17.812h-17.812v-17.812z"/>
    <path d="m232.81 586.45h17.812v17.812h-17.812v-17.812z"/>
    <path d="m256.81 586.45h17.812v17.812h-17.812v-17.812z"/>
    <path d="m280.81 586.45h17.812v17.812h-17.812v-17.812z"/>
    <path d="m88.809 646.45h17.812v17.812h-17.812v-17.812z"/>
    <path d="m112.81 646.45h17.812v17.812h-17.812v-17.812z"/>
    <path d="m136.81 646.45h17.812v17.812h-17.812v-17.812z"/>
    <path d="m160.81 646.45h17.812v17.812h-17.812v-17.812z"/>
    <path d="m184.81 646.45h17.812v17.812h-17.812v-17.812z"/>
    <path d="m208.81 646.45h17.812v17.812h-17.812v-17.812z"/>
    <path d="m232.81 646.45h17.812v17.812h-17.812v-17.812z"/>
    <path d="m256.81 646.45h17.812v17.812h-17.812v-17.812z"/>
    <path d="m280.81 646.45h17.812v17.812h-17.812v-17.812z"/>
    <path d="m88.809 676.45h17.812v17.812h-17.812v-17.812z"/>
    <path d="m112.81 676.45h17.812v17.812h-17.812v-17.812z"/>
    <path d="m136.81 676.45h17.812v17.812h-17.812v-17.812z"/>
    <path d="m160.81 676.45h17.812v17.812h-17.812v-17.812z"/>
    <path d="m184.81 676.45h17.812v17.812h-17.812v-17.812z"/>
    <path d="m208.81 676.45h17.812v17.812h-17.812v-17.812z"/>
    <path d="m232.81 676.45h17.812v17.812h-17.812v-17.812z"/>
    <path d="m256.81 676.45h17.812v17.812h-17.812v-17.812z"/>
    <path d="m280.81 676.45h17.812v17.812h-17.812v-17.812z"/>
    <path d="m304.81 676.45h17.812v17.812h-17.812v-17.812z"/>
    <path d="m88.809 706.45h17.812v17.812h-17.812v-17.812z"/>
    <path d="m112.81 706.45h17.812v17.812h-17.812v-17.812z"/>
    <path d="m136.81 706.45h17.812v17.812h-17.812v-17.812z"/>
    <path d="m160.81 706.45h17.812v17.812h-17.812v-17.812z"/>
    <path d="m184.81 706.45h17.812v17.812h-17.812v-17.812z"/>
    <path d="m208.81 706.45h17.812v17.812h-17.812v-17.812z"/>
    <path d="m232.81 706.45h17.812v17.812h-17.812v-17.812z"/>
    <path d="m256.81 706.45h17.812v17.812h-17.812v-17.812z"/>
    <path d="m280.81 706.45h17.812v17.812h-17.812v-17.812z"/>
    <path d="m304.81 706.45h17.812v17.812h-17.812v-17.812z"/>
    <path d="m88.809 736.45h17.812v17.812h-17.812v-17.812z"/>
    <path d="m112.81 736.45h17.812v17.812h-17.812v-17.812z"/>
    <path d="m136.81 736.45h17.812v17.812h-17.812v-17.812z"/>
    <path d="m160.81 736.45h17.812v17.812h-17.812v-17.812z"/>
    <path d="m184.81 736.45h17.812v17.812h-17.812v-17.812z"/>
    <path d="m208.81 736.45h17.812v17.812h-17.812v-17.812z"/>
    <path d="m232.81 736.45h17.812v17.812h-17.812v-17.812z"/>
    <path d="m256.81 736.45h17.812v17.812h-17.812v-17.812z"/>
    <path d="m280.81 736.45h17.812v17.812h-17.812v-17.812z"/>
    <path d="m304.81 736.45h17.812v17.812h-17.812v-17.812z"/>
    <path d="m88.809 766.45h17.812v17.812h-17.812v-17.812z"/>
    <path d="m112.81 766.45h17.812v17.812h-17.812v-17.812z"/>
    <path d="m136.81 766.45h17.812v17.812h-17.812v-17.812z"/>
    <path d="m160.81 766.45h17.812v17.812h-17.812v-17.812z"/>
    <path d="m184.81 766.45h17.812v17.812h-17.812v-17.812z"/>
    <path d="m208.81 766.45h17.812v17.812h-17.812v-17.812z"/>
    <path d="m232.81 766.45h17.812v17.812h-17.812v-17.812z"/>
    <path d="m256.81 766.45h17.812v17.812h-17.812v-17.812z"/>
    <path d="m280.81 766.45h17.812v17.812h-17.812v-17.812z"/>
    <path d="m304.81 766.45h17.812v17.812h-17.812v-17.812z"/>
   </g>
   <g transform="translate(473.02 -5.6815)" fill="#666">
    <path d="m88.809 106.45h17.812v17.812h-17.812v-17.812z"/>
    <path d="m112.81 106.45h17.812v17.812h-17.812v-17.812z"/>
    <path d="m136.81 106.45h17.812v17.812h-17.812v-17.812z"/>
    <path d="m160.81 106.45h17.812v17.812h-17.812v-17.812z"/>
    <path d="m184.81 106.45h17.812v17.812h-17.812v-17.812z"/>
    <path d="m208.81 106.45h17.812v17.812h-17.812v-17.812z"/>
    <path d="m88.809 136.45h17.812v17.812h-17.812v-17.812z"/>
    <path d="m112.81 136.45h17.812v17.812h-17.812v-17.812z"/>
    <path d="m136.81 136.45h17.812v17.812h-17.812v-17.812z"/>
    <path d="m160.81 136.45h17.812v17.812h-17.812v-17.812z"/>
    <path d="m184.81 136.45h17.812v17.812h-17.812v-17.812z"/>
    <path d="m208.81 136.45h17.812v17.812h-17.812v-17.812z"/>
   </g>
   <rect x="170.29" y="427.91" width="37.914" height="134.95" fill="#ff0" opacity=".7"/>
   <rect x="226.54" y="504.83" width="37.914" height="58.028" fill="#f00" opacity=".7"/>
   <rect x="339.05" y="445.46" width="37.914" height="117.4" fill="#f0f" opacity=".7"/>
   <rect x="395.3" y="395.53" width="37.914" height="167.34" fill="#00f" opacity=".7"/>
   <rect x="282.79" y="460.3" width="37.914" height="102.56" fill="#0f0" opacity=".7"/>
   <path d="m143.71 369.64v193.4h344.62v-3.9394h-340.68v-189.46h-3.9394z" color="#000000" color-rendering="auto" fill="#505050" image-rendering="auto" shape-rendering="auto" solid-color="#000000" style="block-progression:tb;isolation:auto;mix-blend-mode:normal;text-decoration-color:#000000;text-decoration-line:none;text-decoration-style:solid;text-indent:0;text-transform:none;white-space:normal"/>
   <path d="m531 792.06v97.731l174.25 10.479c0.6589-3.4447 1.0123-6.9372 1.0123-10.479 0-53.976-78.466-97.731-175.26-97.731z" fill="#ff0" opacity=".7"/>
   <path d="m531 889.79-6.5411 97.645c2.1748 0.0446 4.3467 0.0869 6.5411 0.0869 90.441 0 164.87-38.207 174.25-87.252z" fill="#f00" opacity=".7"/>
   <path d="m357.64 875.43c-1.2362 4.6842-1.8948 9.4829-1.8948 14.359 0 18.671 9.4087 36.113 25.697 50.95l149.56-50.95z" fill="#f0f" opacity=".7"/>
   <path d="m408.87 819.7c-26.949 14.608-45.505 34.002-51.238 55.727l173.36 14.359z" fill="#00f" opacity=".7"/>
   <path d="m531 889.79-149.56 50.95c29.733 27.083 82.448 45.453 143.02 46.695z" fill="#0f0" opacity=".7"/>
   <path d="m531 792.06c-47.498 0-90.561 10.536-122.13 27.646l122.13 70.085z" fill="#808080" opacity=".7"/>
   <path d="m529.76 790.82v100.14l176.5 10.615 0.20507-1.0723c0.67259-3.5163 1.0352-7.0862 1.0352-10.711 0-27.589-20.019-52.375-51.969-70.191-31.95-17.817-75.948-28.781-124.53-28.781h-1.2402zm2.4805 2.5156c47.711 0.18759 90.874 11.031 122.08 28.434 31.481 17.555 50.697 41.637 50.697 68.023 0 3.0957-0.36636 6.1421-0.88672 9.168l-171.89-10.338v-95.287z" color="#000000" color-rendering="auto" fill="#505050" image-rendering="auto" shape-rendering="auto" solid-color="#000000" style="block-progression:tb;isolation:auto;mix-blend-mode:normal;text-decoration-color:#000000;text-decoration-line:none;text-decoration-style:solid;text-indent:0;text-transform:none;white-space:normal"/>
   <path d="m529.84 888.48-0.082 1.2285-6.627 98.941 1.2988 0.0273c2.1757 0.0446 4.3561 0.0859 6.5664 0.0859 45.395 0 86.783-9.5774 118.08-25.367 31.297-15.79 52.592-37.834 57.385-62.893l0.26563-1.3867-176.89-10.637zm2.3125 2.625 171.49 10.312c-5.1069 23.428-25.412 44.491-55.684 59.764-30.871 15.575-71.917 25.102-116.96 25.102-1.7435 0-3.4775-0.0348-5.2148-0.0684l6.3711-95.109z" color="#000000" color-rendering="auto" fill="#505050" image-rendering="auto" shape-rendering="auto" solid-color="#000000" style="block-progression:tb;isolation:auto;mix-blend-mode:normal;text-decoration-color:#000000;text-decoration-line:none;text-decoration-style:solid;text-indent:0;text-transform:none;white-space:normal"/>
   <path d="m356.7 874.11-0.26562 1.0059c-1.2618 4.7812-1.9356 9.6883-1.9356 14.676 0 19.087 9.6331 36.864 26.104 51.867l0.54101 0.49219 150.26-51.186-0.29883-2.4102-174.4-14.445zm1.9336 2.6504 166.33 13.775-143.2 48.785c-15.773-14.561-24.781-31.48-24.781-49.529 0-4.4175 0.60867-8.7638 1.6543-13.031z" color="#000000" color-rendering="auto" fill="#505050" image-rendering="auto" shape-rendering="auto" solid-color="#000000" style="block-progression:tb;isolation:auto;mix-blend-mode:normal;text-decoration-color:#000000;text-decoration-line:none;text-decoration-style:solid;text-indent:0;text-transform:none;white-space:normal"/>
   <path d="m408.89 818.28-0.60742 0.32813c-27.143 14.713-45.992 34.315-51.848 56.502l-0.37696 1.4297 174.84 14.482 0.71875-2.3125-122.73-70.43zm-0.0117 2.8535 116.68 66.957-166.23-13.77c5.9942-20.528 23.736-39.054 49.557-53.188z" color="#000000" color-rendering="auto" fill="#505050" image-rendering="auto" shape-rendering="auto" solid-color="#000000" style="block-progression:tb;isolation:auto;mix-blend-mode:normal;text-decoration-color:#000000;text-decoration-line:none;text-decoration-style:solid;text-indent:0;text-transform:none;white-space:normal"/>
   <path d="m532.36 888.01-1.7617 0.59961-151.55 51.627 1.5527 1.416c30.066 27.387 83.021 45.771 143.83 47.018l1.1836 0.0234 6.7441-100.68zm-2.7246 3.5508-6.334 94.562c-58.767-1.4285-109.85-19.11-139.32-44.945l145.66-49.617z" color="#000000" color-rendering="auto" fill="#505050" image-rendering="auto" shape-rendering="auto" solid-color="#000000" style="block-progression:tb;isolation:auto;mix-blend-mode:normal;text-decoration-color:#000000;text-decoration-line:none;text-decoration-style:solid;text-indent:0;text-transform:none;white-space:normal"/>
   <path d="m531 790.82c-47.682 0-90.924 10.561-122.72 27.795l-1.9551 1.0606 125.91 72.258v-101.11h-1.2402zm-1.2402 2.5156v94.314l-118.25-67.861c30.871-16.22 72.415-26.273 118.25-26.453z" color="#000000" color-rendering="auto" fill="#505050" image-rendering="auto" shape-rendering="auto" solid-color="#000000" style="block-progression:tb;isolation:auto;mix-blend-mode:normal;text-decoration-color:#000000;text-decoration-line:none;text-decoration-style:solid;text-indent:0;text-transform:none;white-space:normal"/>
  </g>
 </g>
</svg>
