<?xml version='1.0' encoding='utf-8'?>
<svg xmlns="http://www.w3.org/2000/svg" id="Layer_1" data-name="Layer 1" viewBox="0 0 1200 400"><defs><style>.cls-1{fill:#ccc;}.cls-2{fill:#b3b3b3;}</style></defs><title>Keyboard</title><path class="cls-1" d="M1217.56,440H62.44A22.51,22.51,0,0,0,40,462.44V817.56A22.51,22.51,0,0,0,62.44,840H1217.56A22.51,22.51,0,0,0,1240,817.56V462.44A22.51,22.51,0,0,0,1217.56,440ZM230,710a20.06,20.06,0,0,1-20,20H70a20.06,20.06,0,0,1-20-20V670a20.06,20.06,0,0,1,20-20H210a20.06,20.06,0,0,1,20,20ZM870,810a20.06,20.06,0,0,1-20,20H410a20.06,20.06,0,0,1-20-20V770a20.06,20.06,0,0,1,20-20H850a20.06,20.06,0,0,1,20,20Zm360,0a20.06,20.06,0,0,1-20,20H1110a20.06,20.06,0,0,1-20-20V770a20.06,20.06,0,0,1,20-20h100a20.06,20.06,0,0,1,20,20Zm0-200a20.06,20.06,0,0,1-20,20H1010a20.06,20.06,0,0,1-20-20V570a20.06,20.06,0,0,1,20-20h200a20.06,20.06,0,0,1,20,20Z" transform="translate(-40 -440)"/><rect class="cls-2" x="10" y="10" width="80" height="80" rx="20" ry="20"/><rect class="cls-2" x="110" y="10" width="80" height="80" rx="20" ry="20"/><rect class="cls-2" x="210" y="10" width="80" height="80" rx="20" ry="20"/><rect class="cls-2" x="310" y="10" width="80" height="80" rx="20" ry="20"/><rect class="cls-2" x="410" y="10" width="80" height="80" rx="20" ry="20"/><rect class="cls-2" x="510" y="10" width="80" height="80" rx="20" ry="20"/><rect class="cls-2" x="610" y="10" width="80" height="80" rx="20" ry="20"/><rect class="cls-2" x="710" y="10" width="80" height="80" rx="20" ry="20"/><rect class="cls-2" x="810" y="10" width="80" height="80" rx="20" ry="20"/><rect class="cls-2" x="910" y="10" width="80" height="80" rx="20" ry="20"/><rect class="cls-2" x="1010" y="10" width="180" height="80" rx="20" ry="20"/><rect class="cls-2" x="910" y="210" width="280" height="80" rx="20" ry="20"/><rect class="cls-2" x="950" y="110" width="240" height="80" rx="20" ry="20"/><rect class="cls-2" x="450" y="110" width="80" height="80" rx="20" ry="20"/><rect class="cls-2" x="550" y="110" width="80" height="80" rx="20" ry="20"/><rect class="cls-2" x="650" y="110" width="80" height="80" rx="20" ry="20"/><rect class="cls-2" x="750" y="110" width="80" height="80" rx="20" ry="20"/><rect class="cls-2" x="850" y="110" width="80" height="80" rx="20" ry="20"/><rect class="cls-2" x="150" y="110" width="80" height="80" rx="20" ry="20"/><rect class="cls-2" x="250" y="110" width="80" height="80" rx="20" ry="20"/><rect class="cls-2" x="350" y="110" width="80" height="80" rx="20" ry="20"/><rect class="cls-2" x="10" y="110" width="120" height="80" rx="20" ry="20"/><rect class="cls-2" x="410" y="210" width="80" height="80" rx="20" ry="20"/><rect class="cls-2" x="510" y="210" width="80" height="80" rx="20" ry="20"/><rect class="cls-2" x="610" y="210" width="80" height="80" rx="20" ry="20"/><rect class="cls-2" x="710" y="210" width="80" height="80" rx="20" ry="20"/><rect class="cls-2" x="810" y="210" width="80" height="80" rx="20" ry="20"/><rect class="cls-2" x="310" y="210" width="80" height="80" rx="20" ry="20"/><rect class="cls-2" x="210" y="210" width="80" height="80" rx="20" ry="20"/><rect class="cls-2" x="10" y="210" width="180" height="80" rx="20" ry="20"/><rect class="cls-2" x="950" y="310" width="80" height="80" rx="20" ry="20"/><rect class="cls-2" x="850" y="310" width="80" height="80" rx="20" ry="20"/><rect class="cls-2" x="150" y="310" width="80" height="80" rx="20" ry="20"/><rect class="cls-2" x="10" y="310" width="120" height="80" rx="20" ry="20"/><rect class="cls-2" x="250" y="310" width="80" height="80" rx="20" ry="20"/><rect class="cls-2" x="1050" y="310" width="140" height="80" rx="20" ry="20"/><rect class="cls-2" x="350" y="310" width="480" height="80" rx="20" ry="20"/></svg>